<svg width="150" height="70" viewBox="0 0 150 70" fill="none" xmlns="http://www.w3.org/2000/svg">
<path d="M30.2 44.72C30.6 44.56 30.9333 44.48 31.2 44.48C31.6267 44.48 31.9467 44.64 32.16 44.96C32.3733 45.28 32.48 45.6933 32.48 46.2C32.48 47 32.28 47.68 31.88 48.24C31.5067 48.8 30.8533 49.3067 29.92 49.76C28.3467 50.5067 26.3067 51.1067 23.8 51.56C21.2933 51.9867 18.8267 52.2 16.4 52.2C13.04 52.2 10.2267 51.8267 7.96 51.08C5.69333 50.3067 4 49.2533 2.88 47.92C1.78667 46.5867 1.24 45.08 1.24 43.4C1.24 41.1067 1.97333 39.16 3.44 37.56C4.93333 35.9333 7.12 34.76 10 34.04C8.42667 33.5867 7.21333 32.7867 6.36 31.64C5.53333 30.4933 5.12 29.2133 5.12 27.8C5.12 25.88 5.72 24.1867 6.92 22.72C8.14667 21.2267 9.78667 20.08 11.84 19.28C13.8933 18.48 16.1467 18.08 18.6 18.08C21.9067 18.08 24.3867 18.8 26.04 20.24C27.6933 21.6533 28.52 23.4933 28.52 25.76C28.52 27.3333 28.2267 28.6133 27.64 29.6C27.08 30.56 26.2667 31.04 25.2 31.04C24.4533 31.04 23.8667 30.88 23.44 30.56C23.0133 30.2133 22.8 29.7067 22.8 29.04C22.8 28.5867 22.8667 28.0933 23 27.56C23.1333 26.68 23.2 26.08 23.2 25.76C23.2 24.8 22.84 24.0267 22.12 23.44C21.4 22.8267 20.2 22.52 18.52 22.52C16.2533 22.52 14.44 23 13.08 23.96C11.72 24.92 11.04 26.2133 11.04 27.84C11.04 29.0933 11.5467 30.1333 12.56 30.96C13.6 31.76 15.28 32.2 17.6 32.28C18.1867 32.3067 18.6 32.44 18.84 32.68C19.08 32.92 19.2 33.32 19.2 33.88C19.2 35.64 18.4 36.5333 16.8 36.56C14.5867 36.6133 12.7467 36.92 11.28 37.48C9.84 38.04 8.78667 38.76 8.12 39.64C7.48 40.4933 7.16 41.4133 7.16 42.4C7.16 44.0533 7.93333 45.3067 9.48 46.16C11.0267 46.9867 13.48 47.4 16.84 47.4C19.0533 47.4 21.3867 47.1467 23.84 46.64C26.32 46.1067 28.44 45.4667 30.2 44.72ZM36.2006 52.2C33.5873 52.2 31.5473 51.4667 30.0806 50C28.6406 48.5067 27.9206 46.5467 27.9206 44.12C27.9206 41.96 28.3473 40.0667 29.2006 38.44C30.054 36.8133 31.1606 35.56 32.5206 34.68C33.8806 33.8 35.3073 33.36 36.8006 33.36C38.2673 33.36 39.4006 33.8 40.2006 34.68C41.0273 35.5333 41.4406 36.64 41.4406 38C41.4406 39.12 41.1873 40.0667 40.6806 40.84C40.2006 41.6133 39.5606 42 38.7606 42C38.254 42 37.8406 41.88 37.5206 41.64C37.2273 41.4 37.0806 41.0667 37.0806 40.64C37.0806 40.4533 37.1073 40.24 37.1606 40C37.214 39.76 37.254 39.5867 37.2806 39.48C37.414 39.08 37.4806 38.7067 37.4806 38.36C37.4806 38.0133 37.3873 37.7467 37.2006 37.56C37.0406 37.3733 36.8006 37.28 36.4806 37.28C35.8673 37.28 35.294 37.56 34.7606 38.12C34.2273 38.6533 33.8006 39.3867 33.4806 40.32C33.1606 41.2533 33.0006 42.28 33.0006 43.4C33.0006 46.4933 34.3473 48.04 37.0406 48.04C38.134 48.04 39.3073 47.68 40.5606 46.96C41.8406 46.2133 43.094 45.1067 44.3206 43.64C44.6406 43.2667 45.0006 43.08 45.4006 43.08C45.7473 43.08 46.014 43.24 46.2006 43.56C46.414 43.88 46.5206 44.32 46.5206 44.88C46.5206 45.8933 46.2673 46.72 45.7606 47.36C44.5073 48.9067 43.0006 50.1067 41.2406 50.96C39.5073 51.7867 37.8273 52.2 36.2006 52.2ZM50.0472 52.2C48.4739 52.2 47.1272 51.8133 46.0072 51.04C44.9139 50.24 44.0872 49.2 43.5272 47.92C42.9672 46.64 42.6872 45.2667 42.6872 43.8C42.6872 41.7733 43.0605 39.9733 43.8072 38.4C44.5805 36.8 45.6205 35.56 46.9272 34.68C48.2339 33.7733 49.7005 33.32 51.3272 33.32C52.9005 33.32 54.2472 33.72 55.3672 34.52C56.4872 35.2933 57.3272 36.32 57.8872 37.6C58.4472 38.88 58.7272 40.2533 58.7272 41.72C58.7272 43.7467 58.3405 45.56 57.5672 47.16C56.7939 48.7333 55.7405 49.9733 54.4072 50.88C53.1005 51.76 51.6472 52.2 50.0472 52.2ZM50.4872 47.88C51.3939 47.88 52.1539 47.3867 52.7672 46.4C53.4072 45.4133 53.7272 43.9733 53.7272 42.08C53.7272 40.6133 53.4605 39.5067 52.9272 38.76C52.3939 38.0133 51.7539 37.64 51.0072 37.64C50.0472 37.64 49.2472 38.1333 48.6072 39.12C47.9939 40.08 47.6872 41.52 47.6872 43.44C47.6872 44.96 47.9539 46.08 48.4872 46.8C49.0205 47.52 49.6872 47.88 50.4872 47.88Z" fill="#0CB981"/>
<path d="M69.7852 55.7227C68.5091 55.7227 67.3568 55.5534 66.3281 55.2148C65.2995 54.8893 64.4141 54.4141 63.6719 53.7891C62.9167 53.1641 62.3372 52.4219 61.9336 51.5625C61.543 50.7031 61.3477 49.7526 61.3477 48.7109C61.3477 47.8385 61.4844 47.0182 61.7578 46.25C62.0443 45.4688 62.4414 44.7917 62.9492 44.2188C63.457 43.6458 64.0495 43.2031 64.7266 42.8906C65.4036 42.5651 66.1198 42.4023 66.875 42.4023C67.8125 42.4023 68.6003 42.6367 69.2383 43.1055C69.8763 43.5742 70.2734 44.2188 70.4297 45.0391C69.0365 45.0391 67.9297 45.4102 67.1094 46.1523C66.7188 46.5039 66.4128 46.9336 66.1914 47.4414C65.9831 47.9492 65.8789 48.5091 65.8789 49.1211C65.8789 50.293 66.2174 51.224 66.8945 51.9141C67.5846 52.5911 68.5091 52.9297 69.668 52.9297C70.3581 52.9297 71.0026 52.806 71.6016 52.5586C72.2005 52.2982 72.7214 51.9466 73.1641 51.5039C73.6068 51.0612 73.9453 50.5339 74.1797 49.9219C74.4271 49.2969 74.5508 48.6328 74.5508 47.9297C74.5508 46.6276 74.1081 45.2734 73.2227 43.8672C72.8711 43.3203 72.4805 42.7865 72.0508 42.2656C71.6341 41.7318 71.0482 41.0286 70.293 40.1562C69.6159 39.375 69.0495 38.6979 68.5938 38.125C68.138 37.5521 67.7279 36.9661 67.3633 36.3672C66.4779 34.9219 66.0352 33.5026 66.0352 32.1094C66.0352 31.0677 66.2565 30.1042 66.6992 29.2188C67.1419 28.3203 67.7734 27.5391 68.5938 26.875C69.4141 26.2109 70.3711 25.6966 71.4648 25.332C72.5586 24.9674 73.737 24.7852 75 24.7852C77.1484 24.7852 78.8737 25.293 80.1758 26.3086C80.8008 26.8034 81.276 27.3958 81.6016 28.0859C81.9401 28.776 82.1094 29.5443 82.1094 30.3906C82.1094 31.4974 81.8294 32.4023 81.2695 33.1055C81.0091 33.444 80.6836 33.7044 80.293 33.8867C79.9154 34.069 79.5117 34.1602 79.082 34.1602C78.0794 34.1602 77.2656 33.7435 76.6406 32.9102C77.1484 32.5456 77.5456 32.0638 77.832 31.4648C78.1315 30.8529 78.2812 30.2018 78.2812 29.5117C78.2812 28.6523 78.0273 27.9753 77.5195 27.4805C77.0117 26.9727 76.3151 26.7188 75.4297 26.7188C74.8958 26.7188 74.401 26.8164 73.9453 27.0117C73.5026 27.207 73.125 27.487 72.8125 27.8516C72.487 28.2161 72.2331 28.6458 72.0508 29.1406C71.8815 29.6354 71.7969 30.1758 71.7969 30.7617C71.7969 31.5951 71.9922 32.3958 72.3828 33.1641C72.7734 33.9323 73.3333 34.7331 74.0625 35.5664C74.7135 36.3346 75.4167 37.0964 76.1719 37.8516C77.9297 39.6745 79.1732 41.4518 79.9023 43.1836C80.332 44.2122 80.5469 45.3451 80.5469 46.582C80.5469 47.8841 80.2799 49.0951 79.7461 50.2148C79.2122 51.3216 78.4505 52.2852 77.4609 53.1055C76.4714 53.9388 75.319 54.5833 74.0039 55.0391C72.6888 55.4948 71.2826 55.7227 69.7852 55.7227ZM86.7773 55.2344C85.5013 55.2344 84.4922 54.8568 83.75 54.1016C82.9167 53.2682 82.5 52.0508 82.5 50.4492C82.5 49.694 82.6042 48.8216 82.8125 47.832L85.5273 35H91.2891L88.418 48.5938C88.3398 48.9193 88.3008 49.2578 88.3008 49.6094C88.3008 50.1172 88.3854 50.5208 88.5547 50.8203C88.75 51.1849 89.0625 51.3672 89.4922 51.3672C90.2214 51.3672 90.8789 51.0352 91.4648 50.3711C91.9336 49.8112 92.3438 48.9648 92.6953 47.832L95.4102 35H101.172L98.3008 48.5938C98.1576 49.2708 98.0859 49.7526 98.0859 50.0391C98.0859 50.4557 98.1966 50.7812 98.418 51.0156C98.6393 51.25 98.9844 51.3672 99.4531 51.3672C100.078 51.3672 100.69 51.1458 101.289 50.7031C101.888 50.2604 102.454 49.6484 102.988 48.8672C103.483 48.151 103.939 47.3177 104.355 46.3672C104.785 45.4167 105.15 44.4336 105.449 43.418C105.736 42.4284 105.957 41.4648 106.113 40.5273C106.283 39.5768 106.367 38.737 106.367 38.0078C106.315 38.125 106.126 38.2227 105.801 38.3008C105.592 38.3659 105.358 38.3984 105.098 38.3984C104.642 38.3984 104.284 38.1771 104.023 37.7344C103.776 37.3568 103.652 36.901 103.652 36.3672C103.652 35.7161 103.861 35.1953 104.277 34.8047C104.694 34.401 105.312 34.1992 106.133 34.1992C107.018 34.1992 107.676 34.5573 108.105 35.2734C108.47 35.8724 108.652 36.6732 108.652 37.6758C108.652 38.7826 108.555 39.9805 108.359 41.2695C108.177 42.5586 107.897 43.8281 107.52 45.0781C106.608 48.0469 105.378 50.3841 103.828 52.0898C101.953 54.1862 99.7591 55.2344 97.2461 55.2344C95.931 55.2344 94.8633 54.9544 94.043 54.3945C93.2227 53.8346 92.6953 52.9948 92.4609 51.875C91.6146 53.1641 90.625 54.082 89.4922 54.6289C88.6849 55.0326 87.7799 55.2344 86.7773 55.2344ZM114.062 55.2344C112.539 55.2344 111.309 54.7591 110.371 53.8086C109.277 52.6888 108.73 51.0221 108.73 48.8086C108.73 47.8711 108.828 46.8815 109.023 45.8398C109.206 44.7982 109.479 43.7695 109.844 42.7539C110.677 40.4622 111.816 38.6133 113.262 37.207C114.928 35.6055 116.849 34.8047 119.023 34.8047C120.104 34.8047 120.911 34.9935 121.445 35.3711C121.992 35.7357 122.266 36.224 122.266 36.8359V37.1289L122.695 35H128.457L125.586 48.5938C125.469 48.9844 125.41 49.4141 125.41 49.8828C125.41 51.0286 125.957 51.6016 127.051 51.6016C127.78 51.6016 128.444 51.2305 129.043 50.4883C129.551 49.8633 129.967 48.9779 130.293 47.832H131.973C131.257 49.8633 130.391 51.4714 129.375 52.6562C128.516 53.6328 127.546 54.3359 126.465 54.7656C125.671 55.0781 124.831 55.2344 123.945 55.2344C122.812 55.2344 121.908 54.9284 121.23 54.3164C120.566 53.6914 120.163 52.7734 120.02 51.5625C119.264 52.6302 118.47 53.4635 117.637 54.0625C116.569 54.8438 115.378 55.2344 114.062 55.2344ZM116.66 51.3672C116.96 51.3672 117.272 51.2891 117.598 51.1328C117.936 50.9766 118.262 50.7552 118.574 50.4688C119.277 49.7917 119.746 48.9128 119.98 47.832L121.895 38.8086C121.895 38.6784 121.862 38.5286 121.797 38.3594C121.745 38.1771 121.667 38.0078 121.562 37.8516C121.25 37.474 120.814 37.2852 120.254 37.2852C119.72 37.2852 119.199 37.4609 118.691 37.8125C118.197 38.1641 117.728 38.6523 117.285 39.2773C116.504 40.4102 115.859 41.888 115.352 43.7109C115.117 44.5182 114.941 45.319 114.824 46.1133C114.707 46.8945 114.648 47.6042 114.648 48.2422C114.648 49.5703 114.896 50.4688 115.391 50.9375C115.56 51.1198 115.749 51.237 115.957 51.2891C116.165 51.3411 116.4 51.3672 116.66 51.3672ZM133.359 33.5156H139.121L138.477 36.5234C139.831 35.3776 141.387 34.8047 143.145 34.8047C144.642 34.8047 145.801 35.2604 146.621 36.1719C147.559 37.2396 148.027 38.8867 148.027 41.1133C148.027 43.2617 147.754 45.2799 147.207 47.168C146.517 49.5768 145.514 51.4453 144.199 52.7734C142.585 54.4141 140.579 55.2344 138.184 55.2344C137.259 55.2344 136.497 55.0911 135.898 54.8047C135.443 54.5964 135.072 54.2643 134.785 53.8086L132.715 63.5547L126.68 65L133.359 33.5156ZM136.953 51.7578C138.242 51.7578 139.349 51.1003 140.273 49.7852C141.003 48.7565 141.589 47.3112 142.031 45.4492C142.383 43.9518 142.559 42.4674 142.559 40.9961C142.559 39.681 142.318 38.7435 141.836 38.1836C141.523 37.8451 141.094 37.6758 140.547 37.6758C140.065 37.6758 139.577 37.8451 139.082 38.1836C138.587 38.5221 138.158 39.0104 137.793 39.6484L135.43 50.8398C135.521 51.1003 135.69 51.3216 135.938 51.5039C136.198 51.6732 136.536 51.7578 136.953 51.7578Z" fill="#0CB981"/>
</svg>
