<svg width="336" height="368" viewBox="0 0 336 368" fill="none" xmlns="http://www.w3.org/2000/svg">
<g opacity="0.2">
<path d="M307.904 154.253H149.096C126.627 154.253 118.82 142.14 131.959 127.42L211.362 37.8732C220.693 27.1399 236.307 27.1399 245.637 37.8732L325.041 127.42C338.18 142.14 330.373 154.253 307.904 154.253Z" fill="white"/>
<path d="M334.943 276H122.057C91.9712 276 81.6887 259.9 99.3975 240.273L175.374 154.253H281.626L357.602 240.273C375.311 259.9 365.029 276 334.943 276Z" fill="white"/>
<path d="M242.781 276V337.333C242.781 343.62 236.307 348.833 228.5 348.833C220.693 348.833 214.219 343.62 214.219 337.333V276H242.781Z" fill="white"/>
</g>
</svg>
