<svg width="193" height="64" viewBox="0 0 193 64" fill="none" xmlns="http://www.w3.org/2000/svg">
<path d="M52.2032 33.9466C51.3091 33.9466 50.5599 33.1999 50.4632 32.2133C49.8832 26.3466 47.0316 21.0666 42.6332 17.7066C41.8357 17.0933 41.6424 15.8933 42.1982 15.0133C42.7541 14.1333 43.8416 13.9199 44.6391 14.5333C49.8832 18.5599 53.2666 24.8533 53.9674 31.8133C54.0641 32.88 53.3632 33.8399 52.3966 33.9466C52.3241 33.9466 52.2757 33.9466 52.2032 33.9466Z" fill="#0CB981"/>
<path d="M12.0389 34.0798C11.9906 34.0798 11.9181 34.0798 11.8698 34.0798C10.9031 33.9731 10.2023 33.0131 10.2989 31.9465C10.9514 24.9865 14.2864 18.6931 19.4823 14.6398C20.2556 14.0265 21.3673 14.2398 21.9231 15.0931C22.4789 15.9731 22.2856 17.1731 21.5123 17.7865C17.1623 21.1998 14.3348 26.4798 13.8031 32.3198C13.7064 33.3331 12.9331 34.0798 12.0389 34.0798Z" fill="#0CB981"/>
<path d="M41.6416 56.267C38.6691 57.8403 35.4791 58.6403 32.1441 58.6403C28.6641 58.6403 25.3533 57.787 22.26 56.0537C21.39 55.6003 21.0516 54.427 21.4866 53.467C21.8975 52.507 22.9608 52.1337 23.8308 52.587C25.3533 53.4403 26.9725 54.027 28.6158 54.3737C30.8391 54.8537 33.1108 54.8803 35.3341 54.4537C36.9775 54.1337 38.5966 53.5737 40.095 52.7737C40.9891 52.3203 42.0525 52.6937 42.4391 53.6803C42.8741 54.6403 42.5358 55.8137 41.6416 56.267Z" fill="#0CB981"/>
<path d="M32.1219 5.36011C28.3761 5.36011 25.3069 8.72011 25.3069 12.8801C25.3069 17.0401 28.3519 20.4001 32.1219 20.4001C35.8919 20.4001 38.9369 17.0401 38.9369 12.8801C38.9369 8.72011 35.8919 5.36011 32.1219 5.36011Z" fill="#0CB981"/>
<path d="M15.2054 36.9871C11.4595 36.9871 8.39038 40.3471 8.39038 44.5071C8.39038 48.6671 11.4354 52.0271 15.2054 52.0271C18.9754 52.0271 22.0204 48.6671 22.0204 44.5071C22.0204 40.3471 18.9512 36.9871 15.2054 36.9871Z" fill="#0CB981"/>
<path d="M48.7957 36.9866C45.0499 36.9866 41.9807 40.3466 41.9807 44.5066C41.9807 48.6666 45.0257 52.0266 48.7957 52.0266C52.5657 52.0266 55.6107 48.6666 55.6107 44.5066C55.6107 40.3466 52.5657 36.9866 48.7957 36.9866Z" fill="#0CB981"/>
<path d="M90.396 42.768C87.492 42.768 85.224 42.084 83.592 40.716C82.128 39.492 81.396 37.92 81.396 36C81.396 33.864 82.284 31.944 84.06 30.24C86.028 28.344 88.62 27.24 91.836 26.928C91.572 26.544 91.344 26.136 91.152 25.704C90.48 25.68 89.832 25.632 89.208 25.56C88.584 25.464 87.996 25.356 87.444 25.236C85.452 24.756 83.904 23.988 82.8 22.932C81.792 21.948 81.288 20.88 81.288 19.728C81.288 18.432 81.912 17.34 83.16 16.452C84.408 15.612 85.98 15.192 87.876 15.192C88.788 15.192 89.712 15.3 90.648 15.516C91.584 15.708 92.52 16.032 93.456 16.488C93.528 16.512 93.564 16.584 93.564 16.704C93.564 16.944 93.456 17.016 93.24 16.92C91.488 16.08 89.772 15.66 88.092 15.66C86.604 15.66 85.416 16.032 84.528 16.776C83.64 17.52 83.196 18.492 83.196 19.692C83.196 20.772 83.592 21.768 84.384 22.68C85.296 23.688 86.532 24.372 88.092 24.732C88.548 24.828 89.016 24.912 89.496 24.984C89.976 25.056 90.468 25.104 90.972 25.128C90.876 24.744 90.828 24.3 90.828 23.796C90.828 22.092 91.512 20.556 92.88 19.188C94.512 17.556 96.828 16.488 99.828 15.984C100.14 15.936 100.44 15.9 100.728 15.876C101.04 15.852 101.34 15.84 101.628 15.84C102.924 15.84 103.98 16.116 104.796 16.668C105.612 17.196 106.02 17.904 106.02 18.792C106.02 20.184 105.048 21.564 103.104 22.932C100.632 24.636 97.176 25.56 92.736 25.704C92.76 26.088 92.856 26.46 93.024 26.82C93.432 26.796 93.84 26.796 94.248 26.82C94.656 26.82 95.064 26.832 95.472 26.856C96.336 26.928 96.768 27.252 96.768 27.828C96.768 28.38 96.3 28.656 95.364 28.656C94.14 28.656 93.108 28.236 92.268 27.396C90.06 27.756 88.248 28.872 86.832 30.744C85.56 32.496 84.924 34.404 84.924 36.468C84.924 38.148 85.368 39.504 86.256 40.536C87.216 41.712 88.596 42.3 90.396 42.3C91.548 42.3 92.64 42.06 93.672 41.58C94.704 41.1 95.628 40.476 96.444 39.708C97.26 38.94 97.896 38.136 98.352 37.296C98.832 36.456 99.072 35.676 99.072 34.956C99.072 34.284 98.82 33.732 98.316 33.3C97.836 32.844 97.044 32.616 95.94 32.616C95.196 32.616 94.392 32.796 93.528 33.156C92.688 33.492 91.872 33.936 91.08 34.488C90.288 35.016 89.604 35.568 89.028 36.144C88.452 36.72 88.068 37.224 87.876 37.656C87.828 37.8 87.732 37.836 87.588 37.764C87.444 37.692 87.396 37.584 87.444 37.44C87.708 36.816 88.14 36.18 88.74 35.532C89.34 34.884 90.048 34.272 90.864 33.696C91.68 33.12 92.556 32.664 93.492 32.328C94.428 31.968 95.376 31.788 96.336 31.788C98.16 31.788 99.48 32.112 100.296 32.76C101.112 33.408 101.52 34.188 101.52 35.1C101.52 35.916 101.244 36.768 100.692 37.656C100.14 38.544 99.36 39.384 98.352 40.176C97.368 40.944 96.192 41.568 94.824 42.048C93.48 42.528 92.004 42.768 90.396 42.768ZM92.736 25.092C96.48 24.9 99.612 23.928 102.132 22.176C104.172 20.736 105.192 19.488 105.192 18.432C105.192 17.352 104.316 16.812 102.564 16.812C100.188 16.812 97.896 17.796 95.688 19.764C93.864 21.372 92.88 23.148 92.736 25.092ZM107.026 40.644C104.626 40.644 103.426 39.444 103.426 37.044C103.426 35.028 104.122 33.036 105.514 31.068C107.026 28.908 108.766 27.828 110.734 27.828C112.558 27.828 113.374 28.656 113.182 30.312C113.158 30.744 112.93 31.212 112.498 31.716C112.09 32.196 111.694 32.436 111.31 32.436C111.094 32.436 110.914 32.364 110.77 32.22C111.37 31.62 111.742 31.008 111.886 30.384C111.934 30.216 111.97 30.072 111.994 29.952C112.018 29.808 112.03 29.676 112.03 29.556C112.03 28.932 111.742 28.62 111.166 28.62C110.326 28.62 109.15 29.64 107.638 31.68C106.198 33.624 105.478 35.52 105.478 37.368C105.478 39.12 106.15 39.996 107.494 39.996C108.79 39.996 110.05 39.18 111.274 37.548L111.49 37.26L111.994 37.548L111.742 37.908C110.47 39.732 108.898 40.644 107.026 40.644ZM115.757 40.5C114.005 40.5 113.129 39.432 113.129 37.296C113.129 36.24 113.381 35.124 113.885 33.948C114.605 32.244 115.625 30.804 116.945 29.628C118.241 28.476 119.465 27.9 120.617 27.9C122.393 27.9 123.281 28.944 123.281 31.032C123.281 32.112 123.017 33.252 122.489 34.452C121.865 35.892 120.965 37.2 119.789 38.376C118.325 39.792 116.981 40.5 115.757 40.5ZM116.333 39.708C116.885 39.708 117.473 39.48 118.097 39.024C118.889 38.448 119.789 37.248 120.797 35.424C121.901 33.456 122.453 31.872 122.453 30.672C122.453 29.592 121.997 29.052 121.085 29.052C120.365 29.052 119.549 29.508 118.637 30.42C117.749 31.308 116.993 32.436 116.369 33.804C115.529 35.604 115.109 37.044 115.109 38.124C115.109 39.18 115.517 39.708 116.333 39.708ZM131.779 43.812C129.043 43.812 126.883 43.332 125.299 42.372C123.739 41.388 122.959 40.104 122.959 38.52C122.959 36.768 123.823 35.124 125.551 33.588C127.399 31.956 129.823 30.852 132.823 30.276C133.231 30.204 133.663 30.144 134.119 30.096C134.575 30.048 135.031 30.024 135.487 30.024C138.271 30.024 140.155 30.696 141.139 32.04C141.235 32.16 141.283 32.316 141.283 32.508C141.283 32.892 141.175 32.952 140.959 32.688C140.095 31.464 138.211 30.852 135.307 30.852C134.395 30.852 133.579 30.924 132.859 31.068C130.339 31.548 128.335 32.496 126.847 33.912C125.431 35.256 124.723 36.684 124.723 38.196C124.723 39.636 125.371 40.788 126.667 41.652C127.939 42.516 129.667 42.948 131.851 42.948C133.915 42.948 135.823 42.696 137.575 42.192C139.327 41.712 140.935 41.028 142.399 40.14C144.799 38.676 145.999 36.732 145.999 34.308C145.999 31.524 144.259 29.016 140.779 26.784C139.891 26.208 139.147 25.704 138.547 25.272C137.947 24.816 137.479 24.432 137.143 24.12C135.871 22.896 135.235 21.6 135.235 20.232C135.235 19.872 135.271 19.536 135.343 19.224C135.679 17.664 136.723 16.404 138.475 15.444C140.083 14.556 141.823 14.112 143.695 14.112C145.831 14.112 147.451 14.484 148.555 15.228C149.347 15.756 149.743 16.56 149.743 17.64C149.743 18.336 149.539 18.984 149.131 19.584C148.747 20.16 148.243 20.448 147.619 20.448C147.163 20.448 146.755 20.268 146.395 19.908C146.083 19.596 145.927 19.224 145.927 18.792C145.927 17.64 146.491 17.064 147.619 17.064C148.291 17.064 148.699 17.28 148.843 17.712C148.963 17.064 148.711 16.5 148.087 16.02C147.103 15.252 145.819 14.868 144.235 14.868C142.579 14.868 141.067 15.336 139.699 16.272C138.235 17.256 137.503 18.396 137.503 19.692C137.503 21.372 139.039 23.1 142.111 24.876C146.407 27.324 148.555 30.156 148.555 33.372C148.555 34.788 148.099 36.156 147.187 37.476C146.275 38.82 145.063 39.924 143.551 40.788C140.095 42.804 136.171 43.812 131.779 43.812ZM159.899 40.572C158.171 40.572 157.307 39.48 157.307 37.296C157.307 36.696 157.379 36.144 157.523 35.64C156.563 37.392 155.963 38.424 155.723 38.736C154.835 39.984 153.959 40.572 153.095 40.5C151.391 40.308 150.539 39.264 150.539 37.368C150.539 36.6 150.803 35.496 151.331 34.056C151.883 32.592 152.675 30.768 153.707 28.584C153.947 28.056 154.415 27.792 155.111 27.792L157.271 27.828C156.407 28.476 155.639 29.484 154.967 30.852C154.199 32.436 153.611 33.816 153.203 34.992C152.795 36.144 152.591 37.092 152.591 37.836C152.591 38.94 152.987 39.492 153.779 39.492C154.787 39.492 156.047 37.968 157.559 34.92C158.039 33.936 158.507 32.94 158.963 31.932C159.419 30.9 159.875 29.88 160.331 28.872C160.595 28.368 161.051 28.116 161.699 28.116H163.895C163.559 28.308 163.079 28.752 162.455 29.448C162.167 29.928 161.855 30.492 161.519 31.14C161.207 31.764 160.859 32.46 160.475 33.228C159.539 35.172 159.071 36.864 159.071 38.304C159.071 39.336 159.455 39.852 160.223 39.852C161.999 39.852 163.715 37.764 165.371 33.588C165.035 32.796 164.867 32.064 164.867 31.392C164.867 30.912 164.939 30.444 165.083 29.988C165.347 29.1 165.719 28.428 166.199 27.972C166.631 27.54 167.051 27.324 167.459 27.324C167.867 27.324 168.071 27.516 168.071 27.9L167.891 28.548C166.931 31.812 166.031 34.26 165.191 35.892C163.607 39.012 161.843 40.572 159.899 40.572ZM176.082 40.572C175.554 40.572 175.122 40.416 174.786 40.104C174.306 39.696 174.066 39.012 174.066 38.052C174.066 37.428 174.174 36.72 174.39 35.928C173.574 37.296 172.722 38.412 171.834 39.276C170.922 40.116 170.106 40.536 169.386 40.536C168.762 40.536 168.27 40.26 167.91 39.708C167.526 39.18 167.334 38.448 167.334 37.512C167.334 35.232 168.354 32.88 170.394 30.456C170.73 30.048 171.114 29.676 171.546 29.34C171.978 29.004 172.446 28.704 172.95 28.44C173.982 27.912 174.978 27.648 175.938 27.648C177.114 27.648 178.05 28.032 178.746 28.8C178.914 28.968 178.998 29.16 178.998 29.376C178.998 29.784 178.782 29.94 178.35 29.844C178.11 28.98 177.546 28.548 176.658 28.548C175.65 28.548 174.462 29.256 173.094 30.672C172.614 31.2 172.158 31.752 171.726 32.328C171.294 32.88 170.886 33.468 170.502 34.092C169.47 35.82 168.954 37.224 168.954 38.304C168.954 39.12 169.266 39.528 169.89 39.528C170.586 39.528 171.39 39 172.302 37.944C172.806 37.368 173.322 36.66 173.85 35.82C174.378 34.98 174.93 34.008 175.506 32.904C175.746 32.448 175.962 32.076 176.154 31.788C176.346 31.5 176.502 31.284 176.622 31.14C177.006 30.756 177.462 30.576 177.99 30.6L178.71 30.708C179.022 30.78 179.286 30.792 179.502 30.744C179.286 30.96 179.022 31.308 178.71 31.788C178.422 32.244 178.086 32.844 177.702 33.588C177.294 34.38 176.958 35.1 176.694 35.748C176.43 36.396 176.25 36.972 176.154 37.476C176.106 37.716 176.07 37.944 176.046 38.16C176.022 38.352 176.01 38.532 176.01 38.7C176.01 39.324 176.178 39.636 176.514 39.636C176.994 39.636 177.654 39.108 178.494 38.052L178.638 37.872L179.142 38.196L178.998 38.412C178.014 39.852 177.042 40.572 176.082 40.572ZM178.976 52.164C178.808 52.044 178.628 51.888 178.436 51.696C178.244 51.528 178.016 51.324 177.752 51.084C177.248 50.58 176.996 49.98 176.996 49.284C176.996 48.78 177.14 48.084 177.428 47.196C177.668 46.5 178.064 45.456 178.616 44.064C179.144 42.672 179.852 40.932 180.74 38.844C181.004 38.22 181.304 37.488 181.64 36.648C181.976 35.784 182.336 34.8 182.72 33.696C182.816 33.432 182.912 33.132 183.008 32.796C183.104 32.436 183.2 32.028 183.296 31.572C183.344 31.308 183.38 31.068 183.404 30.852C183.452 30.612 183.476 30.408 183.476 30.24C183.476 29.4 183.212 28.8 182.684 28.44L184.448 28.152C184.64 28.128 184.796 28.116 184.916 28.116C185.036 28.116 185.108 28.116 185.132 28.116C185.54 28.116 185.744 28.536 185.744 29.376C185.744 30.552 185.408 32.076 184.736 33.948C187.232 29.868 189.224 27.828 190.712 27.828C191.432 27.828 192.008 28.128 192.44 28.728C192.8 29.232 192.98 29.868 192.98 30.636C192.98 31.692 192.692 32.892 192.116 34.236C191.492 35.604 190.772 36.78 189.956 37.764C188.396 39.612 186.644 40.536 184.7 40.536C183.812 40.536 182.996 40.308 182.252 39.852C181.796 41.004 181.376 42.168 180.992 43.344C180.632 44.544 180.284 45.768 179.948 47.016C179.252 49.512 178.928 51.228 178.976 52.164ZM183.692 39.744C185.18 39.744 186.836 38.472 188.66 35.928C190.436 33.456 191.324 31.476 191.324 29.988C191.324 29.22 191 28.836 190.352 28.836C189.44 28.836 188.432 29.604 187.328 31.14C186.728 32.004 186.02 33.12 185.204 34.488C184.412 35.856 183.524 37.464 182.54 39.312C182.828 39.6 183.212 39.744 183.692 39.744Z" fill="#2AC191"/>
</svg>
