<svg width="64" height="64" viewBox="0 0 64 64" fill="none" xmlns="http://www.w3.org/2000/svg">
<path d="M52.2035 33.9466C51.3093 33.9466 50.5601 33.1999 50.4635 32.2133C49.8835 26.3466 47.0318 21.0666 42.6335 17.7066C41.836 17.0933 41.6426 15.8933 42.1985 15.0133C42.7543 14.1333 43.8418 13.9199 44.6393 14.5333C49.8835 18.5599 53.2668 24.8533 53.9676 31.8133C54.0643 32.88 53.3635 33.8399 52.3968 33.9466C52.3243 33.9466 52.276 33.9466 52.2035 33.9466Z" fill="#0CB981"/>
<path d="M12.0389 34.0798C11.9906 34.0798 11.9181 34.0798 11.8698 34.0798C10.9031 33.9731 10.2023 33.0131 10.2989 31.9465C10.9514 24.9865 14.2864 18.6931 19.4823 14.6398C20.2556 14.0265 21.3673 14.2398 21.9231 15.0931C22.4789 15.9731 22.2856 17.1731 21.5123 17.7865C17.1623 21.1998 14.3348 26.4798 13.8031 32.3198C13.7064 33.3331 12.9331 34.0798 12.0389 34.0798Z" fill="#0CB981"/>
<path d="M41.6416 56.267C38.6691 57.8403 35.4791 58.6403 32.1441 58.6403C28.6641 58.6403 25.3533 57.787 22.26 56.0537C21.39 55.6003 21.0516 54.427 21.4866 53.467C21.8975 52.507 22.9608 52.1337 23.8308 52.587C25.3533 53.4403 26.9725 54.027 28.6158 54.3737C30.8391 54.8537 33.1108 54.8803 35.3341 54.4537C36.9775 54.1337 38.5966 53.5737 40.095 52.7737C40.9891 52.3203 42.0525 52.6937 42.4391 53.6803C42.8741 54.6403 42.5358 55.8137 41.6416 56.267Z" fill="#0CB981"/>
<path d="M32.1221 5.36011C28.3763 5.36011 25.3071 8.72011 25.3071 12.8801C25.3071 17.0401 28.3521 20.4001 32.1221 20.4001C35.8921 20.4001 38.9371 17.0401 38.9371 12.8801C38.9371 8.72011 35.8921 5.36011 32.1221 5.36011Z" fill="#0CB981"/>
<path d="M15.2051 36.9871C11.4593 36.9871 8.39014 40.3471 8.39014 44.5071C8.39014 48.6671 11.4351 52.0271 15.2051 52.0271C18.9751 52.0271 22.0201 48.6671 22.0201 44.5071C22.0201 40.3471 18.951 36.9871 15.2051 36.9871Z" fill="#0CB981"/>
<path d="M48.796 36.9866C45.0501 36.9866 41.981 40.3466 41.981 44.5066C41.981 48.6666 45.026 52.0266 48.796 52.0266C52.566 52.0266 55.611 48.6666 55.611 44.5066C55.611 40.3466 52.566 36.9866 48.796 36.9866Z" fill="#0CB981"/>
</svg>
