<svg xmlns="http://www.w3.org/2000/svg" width="52" height="24" viewBox="0 0 52 24" fill="none">
  <path d="M26.3458 11.62C26.2808 11.62 26.2375 11.62 26.1725 11.62C26.0641 11.61 25.9125 11.61 25.7825 11.62C19.4991 11.53 14.7542 9.25 14.7542 6.44C14.7542 3.58 19.8025 1.25 25.9991 1.25C32.1958 1.25 37.2442 3.58 37.2442 6.44C37.2225 9.25 32.4558 11.53 26.4108 11.62C26.3891 11.62 26.3675 11.62 26.3458 11.62ZM25.9991 2.75C21.6008 2.75 18.0042 4.41 18.0042 6.44C18.0042 8.44 21.3841 10.05 25.6958 10.12C25.8041 10.11 26.1075 10.11 26.3892 10.12C30.6358 10.03 33.9725 8.42 33.9941 6.44C33.9941 4.41 30.3975 2.75 25.9991 2.75Z" fill="black"/>
  <path d="M26.3675 22.55C22.1208 22.55 17.8525 22.05 14.6242 21.05C11.6125 20.13 9.96582 18.87 9.96582 17.5C9.96582 16.13 11.6125 14.86 14.6242 13.93C21.1242 11.94 31.6542 11.94 38.1108 13.93C41.1008 14.85 42.7692 16.11 42.7692 17.48C42.7692 18.85 41.1225 20.12 38.1108 21.05C34.8608 22.05 30.6142 22.55 26.3675 22.55ZM16.4225 15.19C14.3425 15.83 13.2158 16.65 13.2158 17.51C13.2158 18.36 14.3642 19.18 16.4225 19.81C21.8175 21.48 30.9175 21.48 36.3125 19.81C38.3925 19.17 39.5192 18.35 39.5192 17.49C39.5192 16.64 38.3708 15.82 36.3125 15.19C30.9175 13.53 21.8175 13.53 16.4225 15.19Z" fill="black"/>
</svg>
