<svg xmlns="http://www.w3.org/2000/svg" width="40" height="40" viewBox="0 0 40 40" fill="none">
  <path d="M13.0001 36.9167C8.5834 36.9167 4.9834 33.3334 4.9834 28.9001V24.1667C4.9834 23.0501 6.0834 22.3001 7.1334 22.6667C7.56673 22.8167 8.00007 22.9167 8.45007 22.9834C8.65007 23.0167 8.85006 23.0501 9.05006 23.0501C9.30006 23.0834 9.56673 23.1001 9.81673 23.1001C11.6667 23.1001 13.5001 22.4167 14.9501 21.2334C16.3334 22.4167 18.1167 23.1001 20.0167 23.1001C21.9167 23.1001 23.6834 22.4501 25.0667 21.2501C26.5001 22.4167 28.3001 23.1001 30.1334 23.1001C30.4167 23.1001 30.7167 23.0834 30.9834 23.0501C31.1834 23.0334 31.3501 23.0167 31.5334 22.9834C32.0334 22.9167 32.4834 22.7834 32.9334 22.6334C33.9667 22.2834 35.0501 23.0501 35.0501 24.1334V28.9001C35.0501 33.3167 31.4667 36.9167 27.0334 36.9167H13.0001Z" fill="#0CB981"/>
  <path d="M36.6333 14.3168L36.1666 9.8835C35.4999 5.05016 33.2999 3.0835 28.5999 3.0835H24.8332H22.4666H17.5999H15.2166H11.3666C6.66658 3.0835 4.48325 5.05016 3.79992 9.9335L3.36658 14.3335C3.19992 16.0502 3.66658 17.7168 4.68325 19.0168C5.89992 20.6002 7.76658 21.5002 9.84992 21.5002C11.8666 21.5002 13.7999 20.4835 15.0166 18.8668C16.0999 20.4835 17.9666 21.5002 20.0333 21.5002C22.0999 21.5002 23.9166 20.5335 25.0166 18.9335C26.2499 20.5168 28.1499 21.5002 30.1499 21.5002C32.2833 21.5002 34.1999 20.5502 35.3999 18.8835C36.3666 17.6002 36.7999 15.9835 36.6333 14.3168ZM22.4999 12.8835H21.2499V14.1835C21.2499 14.8835 20.6832 15.4335 19.9999 15.4335C19.3166 15.4335 18.7499 14.8835 18.7499 14.1835V12.8835H17.4999C16.8166 12.8835 16.2499 12.3335 16.2499 11.6335C16.2499 10.9502 16.8166 10.3835 17.4999 10.3835H18.7499V9.20016C18.7499 8.51683 19.3166 7.95016 19.9999 7.95016C20.6832 7.95016 21.2499 8.51683 21.2499 9.20016V10.3835H22.4999C23.1832 10.3835 23.7499 10.9502 23.7499 11.6335C23.7499 12.3335 23.1832 12.8835 22.4999 12.8835Z" fill="#0CB981"/>
</svg>