<svg xmlns="http://www.w3.org/2000/svg" width="58" height="64" viewBox="0 0 58 64" fill="none">
  <path d="M49.2035 33.9467C48.3093 33.9467 47.5601 33.2 47.4635 32.2133C46.8835 26.3467 44.0318 21.0667 39.6335 17.7067C38.836 17.0933 38.6426 15.8933 39.1985 15.0133C39.7543 14.1333 40.8418 13.92 41.6393 14.5333C46.8835 18.56 50.2668 24.8533 50.9676 31.8133C51.0643 32.88 50.3635 33.84 49.3968 33.9467C49.3243 33.9467 49.276 33.9467 49.2035 33.9467Z" fill="#0CB981"/>
  <path d="M9.03895 34.0799C8.99062 34.0799 8.91812 34.0799 8.86978 34.0799C7.90312 33.9732 7.20228 33.0132 7.29895 31.9465C7.95145 24.9865 11.2864 18.6932 16.4823 14.6399C17.2556 14.0265 18.3673 14.2399 18.9231 15.0932C19.4789 15.9732 19.2856 17.1732 18.5123 17.7865C14.1623 21.1999 11.3348 26.4799 10.8031 32.3199C10.7064 33.3332 9.93312 34.0799 9.03895 34.0799Z" fill="#0CB981"/>
  <path d="M38.6416 56.2669C35.6691 57.8403 32.4791 58.6403 29.1441 58.6403C25.6641 58.6403 22.3533 57.7869 19.26 56.0536C18.39 55.6003 18.0516 54.4269 18.4866 53.4669C18.8975 52.5069 19.9608 52.1336 20.8308 52.5869C22.3533 53.4403 23.9725 54.0269 25.6158 54.3736C27.8391 54.8536 30.1108 54.8803 32.3341 54.4536C33.9775 54.1336 35.5966 53.5736 37.095 52.7736C37.9891 52.3203 39.0525 52.6936 39.4391 53.6803C39.8741 54.6403 39.5358 55.8136 38.6416 56.2669Z" fill="#0CB981"/>
  <path d="M29.1221 5.36005C25.3763 5.36005 22.3071 8.72005 22.3071 12.88C22.3071 17.04 25.3521 20.4 29.1221 20.4C32.8921 20.4 35.9371 17.04 35.9371 12.88C35.9371 8.72005 32.8921 5.36005 29.1221 5.36005Z" fill="#0CB981"/>
  <path d="M12.2051 36.987C8.4593 36.987 5.39014 40.347 5.39014 44.507C5.39014 48.667 8.43514 52.027 12.2051 52.027C15.9751 52.027 19.0201 48.667 19.0201 44.507C19.0201 40.347 15.951 36.987 12.2051 36.987Z" fill="#0CB981"/>
  <path d="M45.796 36.9867C42.0501 36.9867 38.981 40.3467 38.981 44.5067C38.981 48.6667 42.026 52.0267 45.796 52.0267C49.566 52.0267 52.611 48.6667 52.611 44.5067C52.611 40.3467 49.566 36.9867 45.796 36.9867Z" fill="#0CB981"/>
</svg>