<svg xmlns="http://www.w3.org/2000/svg" width="30" height="31" viewBox="0 0 30 31" fill="none">
  <g clip-path="url(#clip0_121_13403)">
    <path d="M24.7768 7.21759C24.7768 6.18861 23.9697 5.35773 22.9776 5.35773C21.9855 5.35773 21.1777 6.18861 21.1777 7.21759C21.1777 8.2428 21.9855 9.07365 22.9776 9.07365C23.9697 9.07365 24.7768 8.2428 24.7768 7.21759Z" fill="url(#paint0_linear_121_13403)"/>
    <path d="M27.1742 21.7353C27.1076 23.2448 26.8633 24.0649 26.6604 24.6096C26.3879 25.3319 26.0629 25.8483 25.5358 26.3899C25.0146 26.9316 24.5148 27.2667 23.8158 27.5452C23.2887 27.7579 22.4921 28.0111 21.0313 28.083C19.4521 28.155 18.9842 28.1703 14.9794 28.1703C10.9784 28.1703 10.5067 28.155 8.92753 28.083C7.4668 28.0111 6.67382 27.7579 6.14663 27.5452C5.44403 27.2667 4.94799 26.9316 4.4238 26.3899C3.89589 25.8483 3.57088 25.3319 3.30212 24.6096C3.09922 24.0649 2.85123 23.2448 2.78826 21.7353C2.7113 20.1034 2.6972 19.6122 2.6972 15.4825C2.6972 11.3442 2.7113 10.8569 2.78826 9.22498C2.85123 7.71556 3.09922 6.89621 3.30212 6.34686C3.57088 5.62541 3.89589 5.11203 4.4238 4.57037C4.94799 4.02951 5.44403 3.69361 6.14663 3.41211C6.67382 3.19865 7.4668 2.94922 8.92753 2.87733C10.5067 2.80537 10.9784 2.78701 14.9794 2.78701C18.9842 2.78701 19.4521 2.80537 21.0313 2.87733C22.4921 2.94922 23.2887 3.19865 23.8158 3.41211C24.5148 3.69361 25.0146 4.02951 25.5358 4.57037C26.0629 5.11203 26.3879 5.62541 26.6604 6.34686C26.8633 6.89621 27.1076 7.71556 27.1742 9.22498C27.2475 10.8569 27.2653 11.3442 27.2653 15.4825C27.2653 19.6122 27.2475 20.1034 27.1742 21.7353ZM29.8715 9.09802C29.7982 7.44852 29.5464 6.32161 29.1725 5.34006C28.792 4.32174 28.2819 3.45875 27.4467 2.59576C26.6153 1.73662 25.7801 1.20947 24.7947 0.811659C23.8411 0.42911 22.7542 0.165908 21.1571 0.0940121C19.5601 0.0144264 19.0501 -9.15527e-05 14.9794 -9.15527e-05C10.9125 -9.15527e-05 10.3987 0.0144264 8.80169 0.0940121C7.20837 0.165908 6.12219 0.42911 5.16417 0.811659C4.18242 1.20947 3.34727 1.73662 2.51584 2.59576C1.68069 3.45875 1.17054 4.32174 0.786287 5.34006C0.416076 6.32161 0.164365 7.44852 0.0873466 9.09802C0.0177692 10.7483 0 11.2762 0 15.4825C0 19.685 0.0177692 20.212 0.0873466 21.8623C0.164365 23.5087 0.416076 24.6349 0.786287 25.6211C1.17054 26.6355 1.68069 27.5024 2.51584 28.3615C3.34727 29.2207 4.18242 29.7516 5.16417 30.1487C6.12219 30.5312 7.20837 30.7913 8.80169 30.8671C10.3987 30.9429 10.9125 30.9612 14.9794 30.9612C19.0501 30.9612 19.5601 30.9429 21.1571 30.8671C22.7542 30.7913 23.8411 30.5312 24.7947 30.1487C25.7801 29.7516 26.6153 29.2207 27.4467 28.3615C28.2819 27.5024 28.792 26.6355 29.1725 25.6211C29.5464 24.6349 29.7982 23.5087 29.8715 21.8623C29.9448 20.212 29.9625 19.685 29.9625 15.4825C29.9625 11.2762 29.9448 10.7483 29.8715 9.09802Z" fill="url(#paint1_linear_121_13403)"/>
    <path d="M14.9794 20.6383C12.2229 20.6383 9.98625 18.3309 9.98625 15.4825C9.98625 12.6296 12.2229 10.3192 14.9794 10.3192C17.7366 10.3192 19.9763 12.6296 19.9763 15.4825C19.9763 18.3309 17.7366 20.6383 14.9794 20.6383ZM14.9794 7.52823C10.7304 7.52823 7.28906 11.0918 7.28906 15.4825C7.28906 19.8694 10.7304 23.4293 14.9794 23.4293C19.2284 23.4293 22.6734 19.8694 22.6734 15.4825C22.6734 11.0918 19.2284 7.52823 14.9794 7.52823Z" fill="url(#paint2_linear_121_13403)"/>
  </g>
  <defs>
    <linearGradient id="paint0_linear_121_13403" x1="0.270108" y1="30.6412" x2="28.3583" y2="3.45915" gradientUnits="userSpaceOnUse">
      <stop stop-color="#FFD521"/>
      <stop offset="0.05" stop-color="#FFD521"/>
      <stop offset="0.501119" stop-color="#F50000"/>
      <stop offset="0.95" stop-color="#B900B4"/>
      <stop offset="0.950079" stop-color="#B900B4"/>
      <stop offset="1" stop-color="#B900B4"/>
    </linearGradient>
    <linearGradient id="paint1_linear_121_13403" x1="0.270258" y1="30.6797" x2="28.3815" y2="3.47524" gradientUnits="userSpaceOnUse">
      <stop stop-color="#FFD521"/>
      <stop offset="0.05" stop-color="#FFD521"/>
      <stop offset="0.501119" stop-color="#F50000"/>
      <stop offset="0.95" stop-color="#B900B4"/>
      <stop offset="0.950079" stop-color="#B900B4"/>
      <stop offset="1" stop-color="#B900B4"/>
    </linearGradient>
    <linearGradient id="paint2_linear_121_13403" x1="0.277301" y1="30.6805" x2="28.3818" y2="3.48261" gradientUnits="userSpaceOnUse">
      <stop stop-color="#FFD521"/>
      <stop offset="0.05" stop-color="#FFD521"/>
      <stop offset="0.501119" stop-color="#F50000"/>
      <stop offset="0.95" stop-color="#B900B4"/>
      <stop offset="0.950079" stop-color="#B900B4"/>
      <stop offset="1" stop-color="#B900B4"/>
    </linearGradient>
    <clipPath id="clip0_121_13403">
      <rect width="30" height="31" fill="white"/>
    </clipPath>
  </defs>
</svg>