<svg xmlns="http://www.w3.org/2000/svg" width="40" height="40" viewBox="0 0 40 40" fill="none">
  <path d="M34.2337 31.7335C33.9837 31.9835 33.667 32.1001 33.3504 32.1001C33.0337 32.1001 32.717 31.9835 32.467 31.7335L24.217 23.4835L25.1004 22.6001L25.9837 21.7168L34.2337 29.9668C34.717 30.4501 34.717 31.2501 34.2337 31.7335Z" fill="#0CB981"/>
  <path d="M10.7839 15.4667L20.4506 25.1333C21.1006 25.7833 21.1006 26.8333 20.4506 27.4833L18.9506 29C17.6006 30.3333 15.4673 30.3333 14.1339 29L6.90059 21.7667C5.58392 20.45 5.58392 18.3 6.90059 16.9667L8.41725 15.45C9.06725 14.8167 10.1339 14.8167 10.7839 15.4667Z" fill="#0CB981"/>
  <path d="M30.9834 16.9833L24.6334 23.3166C23.9668 23.9833 22.9001 23.9833 22.2334 23.3166L12.6001 13.6833C11.9334 13.0166 11.9334 11.95 12.6001 11.2833L18.9501 4.9333C20.2668 3.61663 22.4168 3.61663 23.7501 4.9333L30.9834 12.1666C32.3001 13.5 32.3001 15.6333 30.9834 16.9833Z" fill="#0CB981"/>
  <path d="M13.3333 36.25H3.33325C2.64992 36.25 2.08325 35.6833 2.08325 35C2.08325 34.3167 2.64992 33.75 3.33325 33.75H13.3333C14.0166 33.75 14.5833 34.3167 14.5833 35C14.5833 35.6833 14.0166 36.25 13.3333 36.25Z" fill="#0CB981"/>
</svg>