<svg xmlns="http://www.w3.org/2000/svg" width="37" height="31" viewBox="0 0 37 31" fill="none">
  <g clip-path="url(#clip0_121_13408)">
    <path d="M26.1388 25.8814H21.5932V18.833C21.5932 17.1522 21.5629 14.9885 19.2291 14.9885C16.8616 14.9885 16.4994 16.8198 16.4994 18.7106V25.8809H11.9538V11.3865H16.3175V13.3673H16.3786C16.8153 12.628 17.4464 12.0198 18.2046 11.6075C18.9628 11.1952 19.8197 10.9942 20.6841 11.026C25.2912 11.026 26.1407 14.0265 26.1407 17.93L26.1388 25.8814ZM6.82493 9.40523C6.30321 9.40532 5.79317 9.25223 5.35933 8.96532C4.92549 8.6784 4.58734 8.27054 4.3876 7.79332C4.18786 7.3161 4.13552 6.79095 4.23721 6.28429C4.3389 5.77762 4.59005 5.31218 4.95889 4.94684C5.32774 4.5815 5.79771 4.33266 6.30938 4.23179C6.82105 4.13092 7.35143 4.18255 7.83347 4.38015C8.31551 4.57775 8.72754 4.91245 9.01747 5.34191C9.30739 5.77138 9.4622 6.27633 9.46229 6.79291C9.46236 7.1359 9.39418 7.47555 9.26167 7.79245C9.12917 8.10936 8.93494 8.39733 8.69003 8.6399C8.44513 8.88248 8.15435 9.07492 7.83434 9.20623C7.51433 9.33755 7.17133 9.40517 6.82493 9.40523ZM9.09769 25.8814H4.54742V11.3865H9.09769V25.8814ZM28.4049 0.00188639H2.26329C1.66995 -0.00474351 1.0982 0.222141 0.673716 0.632683C0.249235 1.04323 0.00675312 1.60384 -0.000488281 2.19133V28.1829C0.00650528 28.7706 0.248845 29.3316 0.673311 29.7426C1.09778 30.1536 1.66966 30.3809 2.26329 30.3746H28.4049C28.9997 30.382 29.5732 30.1553 29.9993 29.7444C30.4255 29.3334 30.6694 28.7718 30.6777 28.1829V2.18945C30.6692 1.6008 30.4251 1.03955 29.9989 0.629015C29.5728 0.218483 28.9994 -0.00775335 28.4049 1.03096e-05" fill="#0A66C2"/>
  </g>
  <defs>
    <clipPath id="clip0_121_13408">
      <rect width="36.2811" height="30.6269" fill="white"/>
    </clipPath>
  </defs>
</svg>