<svg xmlns="http://www.w3.org/2000/svg" width="54" height="54" viewBox="0 0 54 54" fill="none">
  <path d="M33.75 29.1377H18C17.0775 29.1377 16.3125 28.3727 16.3125 27.4502C16.3125 26.5277 17.0775 25.7627 18 25.7627H33.75C34.6725 25.7627 35.4375 26.5277 35.4375 27.4502C35.4375 28.3727 34.6725 29.1377 33.75 29.1377Z" fill="#101323"/>
  <path d="M27.855 38.1377H18C17.0775 38.1377 16.3125 37.3727 16.3125 36.4502C16.3125 35.5277 17.0775 34.7627 18 34.7627H27.855C28.7775 34.7627 29.5425 35.5277 29.5425 36.4502C29.5425 37.3727 28.7775 38.1377 27.855 38.1377Z" fill="#101323"/>
  <path d="M31.5 15.1875H22.5C20.34 15.1875 16.3125 15.1875 16.3125 9C16.3125 2.8125 20.34 2.8125 22.5 2.8125H31.5C33.66 2.8125 37.6875 2.8125 37.6875 9C37.6875 11.16 37.6875 15.1875 31.5 15.1875ZM22.5 6.1875C20.2725 6.1875 19.6875 6.1875 19.6875 9C19.6875 11.8125 20.2725 11.8125 22.5 11.8125H31.5C34.3125 11.8125 34.3125 11.2275 34.3125 9C34.3125 6.1875 33.7275 6.1875 31.5 6.1875H22.5Z" fill="#101323"/>
  <path d="M33.75 51.1875H20.25C7.605 51.1875 5.0625 45.3825 5.0625 36V22.5C5.0625 12.24 8.775 7.85247 17.91 7.37997C18.81 7.33497 19.6425 8.03247 19.6875 8.97747C19.7325 9.92247 19.0125 10.6875 18.09 10.7325C11.7 11.0925 8.4375 13.005 8.4375 22.5V36C8.4375 44.325 10.08 47.8125 20.25 47.8125H33.75C43.92 47.8125 45.5625 44.325 45.5625 36V22.5C45.5625 13.005 42.3 11.0925 35.91 10.7325C34.9875 10.6875 34.2675 9.87747 34.3125 8.95497C34.3575 8.03247 35.1675 7.31247 36.09 7.35747C45.225 7.85247 48.9375 12.24 48.9375 22.4775V35.9775C48.9375 45.3825 46.395 51.1875 33.75 51.1875Z" fill="#101323"/>
</svg>