<svg xmlns="http://www.w3.org/2000/svg" width="58" height="64" viewBox="0 0 58 64" fill="none">
  <path d="M49.2034 33.9469C48.3092 33.9469 47.56 33.2002 47.4634 32.2135C46.8834 26.3469 44.0317 21.0669 39.6334 17.7069C38.8359 17.0935 38.6425 15.8935 39.1984 15.0135C39.7542 14.1335 40.8417 13.9202 41.6392 14.5335C46.8834 18.5602 50.2667 24.8535 50.9675 31.8135C51.0642 32.8802 50.3634 33.8402 49.3967 33.9469C49.3242 33.9469 49.2759 33.9469 49.2034 33.9469Z" fill="#0CB981"/>
  <path d="M9.03907 34.08C8.99074 34.08 8.91824 34.08 8.8699 34.08C7.90324 33.9734 7.2024 33.0134 7.29907 31.9467C7.95157 24.9867 11.2866 18.6934 16.4824 14.64C17.2557 14.0267 18.3674 14.24 18.9232 15.0934C19.4791 15.9734 19.2857 17.1734 18.5124 17.7867C14.1624 21.2 11.3349 26.48 10.8032 32.32C10.7066 33.3334 9.93324 34.08 9.03907 34.08Z" fill="#0CB981"/>
  <path d="M38.6415 56.2667C35.669 57.8401 32.479 58.6401 29.144 58.6401C25.664 58.6401 22.3532 57.7867 19.2599 56.0534C18.3899 55.6001 18.0515 54.4267 18.4865 53.4667C18.8974 52.5067 19.9607 52.1334 20.8307 52.5867C22.3532 53.4401 23.9724 54.0267 25.6157 54.3734C27.839 54.8534 30.1107 54.8801 32.334 54.4534C33.9774 54.1334 35.5965 53.5734 37.0949 52.7734C37.989 52.3201 39.0524 52.6934 39.439 53.6801C39.874 54.6401 39.5357 55.8134 38.6415 56.2667Z" fill="#0CB981"/>
  <path d="M29.122 5.35986C25.3762 5.35986 22.307 8.71986 22.307 12.8799C22.307 17.0399 25.352 20.3999 29.122 20.3999C32.892 20.3999 35.937 17.0399 35.937 12.8799C35.937 8.71986 32.892 5.35986 29.122 5.35986Z" fill="#0CB981"/>
  <path d="M12.2053 36.9868C8.45943 36.9868 5.39026 40.3468 5.39026 44.5068C5.39026 48.6668 8.43526 52.0268 12.2053 52.0268C15.9753 52.0268 19.0203 48.6668 19.0203 44.5068C19.0203 40.3468 15.9511 36.9868 12.2053 36.9868Z" fill="#0CB981"/>
  <path d="M45.7958 36.9868C42.05 36.9868 38.9808 40.3468 38.9808 44.5068C38.9808 48.6668 42.0258 52.0268 45.7958 52.0268C49.5658 52.0268 52.6108 48.6668 52.6108 44.5068C52.6108 40.3468 49.5658 36.9868 45.7958 36.9868Z" fill="#0CB981"/>
</svg>