<svg xmlns="http://www.w3.org/2000/svg" width="54" height="54" viewBox="0 0 54 54" fill="none">
  <path d="M22.4775 51.255C21.1275 51.255 19.845 50.58 18.9675 49.3875L16.2675 45.7875C16.2675 45.81 16.155 45.7425 16.11 45.7425H15.2775C7.58252 45.7425 2.8125 43.65 2.8125 33.2775V24.2775C2.8125 14.805 8.59502 12.33 13.455 11.9025C13.995 11.835 14.625 11.8125 15.2775 11.8125H29.6775C37.8225 11.8125 42.1425 16.1325 42.1425 24.2775V33.2775C42.1425 33.93 42.12 34.56 42.03 35.1675C41.625 39.96 39.15 45.7425 29.6775 45.7425H28.7775L25.9875 49.3875C25.11 50.58 23.8275 51.255 22.4775 51.255ZM15.2775 15.1875C14.76 15.1875 14.265 15.21 13.7925 15.255C8.57251 15.705 6.1875 18.5625 6.1875 24.2775V33.2775C6.1875 40.995 8.57252 42.3675 15.2775 42.3675H16.1775C17.19 42.3675 18.3375 42.93 18.9675 43.74L21.6675 47.3625C22.1625 48.0375 22.7925 48.0375 23.2875 47.3625L25.9875 43.7625C26.64 42.885 27.675 42.3675 28.7775 42.3675H29.6775C35.3925 42.3675 38.25 39.96 38.6775 34.83C38.745 34.29 38.7675 33.795 38.7675 33.2775V24.2775C38.7675 18 35.955 15.1875 29.6775 15.1875H15.2775Z" fill="#0CB981"/>
  <path d="M22.478 31.9277C21.218 31.9277 20.228 30.9152 20.228 29.6777C20.228 28.4402 21.2405 27.4277 22.478 27.4277C23.7155 27.4277 24.728 28.4402 24.728 29.6777C24.728 30.9152 23.738 31.9277 22.478 31.9277Z" fill="#0CB981"/>
  <path d="M29.6772 31.9277C28.4172 31.9277 27.4272 30.9152 27.4272 29.6777C27.4272 28.4402 28.4397 27.4277 29.6772 27.4277C30.9147 27.4277 31.9272 28.4402 31.9272 29.6777C31.9272 30.9152 30.9147 31.9277 29.6772 31.9277Z" fill="#0CB981"/>
  <path d="M15.2996 31.9277C14.0396 31.9277 13.0496 30.9152 13.0496 29.6777C13.0496 28.4402 14.0621 27.4277 15.2996 27.4277C16.5371 27.4277 17.5496 28.4402 17.5496 29.6777C17.5496 30.9152 16.5371 31.9277 15.2996 31.9277Z" fill="#0CB981"/>
  <path d="M40.3652 36.6525C39.9152 36.6525 39.4652 36.4725 39.1502 36.135C38.7902 35.775 38.6327 35.2575 38.7002 34.7625C38.7677 34.29 38.7902 33.795 38.7902 33.2775V24.2775C38.7902 18 35.9777 15.1875 29.7002 15.1875H15.3002C14.7827 15.1875 14.2877 15.21 13.8152 15.255C13.3202 15.3225 12.8027 15.1425 12.4427 14.805C12.0827 14.445 11.8802 13.95 11.9252 13.455C12.3302 8.59502 14.8277 2.8125 24.3002 2.8125H38.7002C46.8452 2.8125 51.1652 7.13252 51.1652 15.2775V24.2775C51.1652 33.75 45.3827 36.225 40.5227 36.6525C40.4552 36.6525 40.4102 36.6525 40.3652 36.6525ZM15.5702 11.8125H29.6777C37.8227 11.8125 42.1427 16.1325 42.1427 24.2775V32.985C45.9677 32.04 47.7677 29.2275 47.7677 24.2775V15.2775C47.7677 9.00002 44.9552 6.1875 38.6777 6.1875H24.2777C19.3277 6.1875 16.5377 7.9875 15.5702 11.8125Z" fill="#0CB981"/>
</svg>