<svg xmlns="http://www.w3.org/2000/svg" width="40" height="40" viewBox="0 0 40 40" fill="none">
  <path d="M28.3333 5.8335H11.6666C6.66659 5.8335 3.33325 8.3335 3.33325 14.1668V25.8335C3.33325 31.6668 6.66659 34.1668 11.6666 34.1668H28.3333C33.3333 34.1668 36.6666 31.6668 36.6666 25.8335V14.1668C36.6666 8.3335 33.3333 5.8335 28.3333 5.8335ZM10.4166 24.1668C10.4166 24.8502 9.84992 25.4168 9.16658 25.4168C8.48325 25.4168 7.91658 24.8502 7.91658 24.1668V15.8335C7.91658 15.1502 8.48325 14.5835 9.16658 14.5835C9.84992 14.5835 10.4166 15.1502 10.4166 15.8335V24.1668ZM19.9999 25.0002C17.2333 25.0002 14.9999 22.7668 14.9999 20.0002C14.9999 17.2335 17.2333 15.0002 19.9999 15.0002C22.7666 15.0002 24.9999 17.2335 24.9999 20.0002C24.9999 22.7668 22.7666 25.0002 19.9999 25.0002ZM32.0833 24.1668C32.0833 24.8502 31.5166 25.4168 30.8333 25.4168C30.1499 25.4168 29.5833 24.8502 29.5833 24.1668V15.8335C29.5833 15.1502 30.1499 14.5835 30.8333 14.5835C31.5166 14.5835 32.0833 15.1502 32.0833 15.8335V24.1668Z" fill="#0CB981"/>
</svg>