<svg xmlns="http://www.w3.org/2000/svg" width="54" height="54" viewBox="0 0 54 54" fill="none">
  <path d="M27 23.6702C26.0775 23.6702 25.3125 22.9052 25.3125 21.9827V14.4902C25.3125 13.5677 26.0775 12.8027 27 12.8027C27.9225 12.8027 28.6875 13.5677 28.6875 14.4902V21.9827C28.6875 22.9277 27.9225 23.6702 27 23.6702Z" fill="#101323"/>
  <path d="M27.0449 45.7875C21.2399 45.7875 15.4574 44.865 9.94494 43.02C7.89744 42.345 6.34495 40.8825 5.66995 39.0375C4.99494 37.1925 5.21994 35.0775 6.32244 33.2325L9.17994 28.4625C9.80995 27.405 10.3724 25.425 10.3724 24.1875V19.4625C10.3724 10.26 17.8424 2.79004 27.0449 2.79004C36.2474 2.79004 43.7174 10.26 43.7174 19.4625V24.1875C43.7174 25.4025 44.2799 27.405 44.9099 28.4625L47.7674 33.2325C48.8249 34.9875 49.0049 37.08 48.3074 38.9925C47.6099 40.905 46.0799 42.3675 44.1449 43.02C38.6324 44.8875 32.8499 45.7875 27.0449 45.7875ZM27.0449 6.18754C19.7099 6.18754 13.7474 12.15 13.7474 19.485V24.21C13.7474 26.0325 13.0274 28.665 12.0824 30.2175L9.22494 35.01C8.63994 35.9775 8.50495 37.0125 8.84245 37.9125C9.17995 38.8125 9.94494 39.4875 11.0249 39.8475C21.3749 43.29 32.7599 43.29 43.1099 39.8475C44.0774 39.5325 44.8199 38.8125 45.1574 37.8675C45.5174 36.9225 45.4049 35.8875 44.8874 35.01L42.0299 30.24C41.0849 28.6875 40.3649 26.055 40.3649 24.2325V19.5075C40.3424 12.15 34.3799 6.18754 27.0449 6.18754Z" fill="#101323"/>
  <path d="M26.9999 51.5252C24.5924 51.5252 22.2299 50.5352 20.5199 48.8252C18.8099 47.1152 17.8199 44.7527 17.8199 42.3452H21.1949C21.1949 43.8752 21.8249 45.3602 22.9049 46.4402C23.9849 47.5202 25.4699 48.1502 26.9999 48.1502C30.1949 48.1502 32.8049 45.5402 32.8049 42.3452H36.1799C36.1799 47.4077 32.0624 51.5252 26.9999 51.5252Z" fill="#101323"/>
</svg>