<svg xmlns="http://www.w3.org/2000/svg" width="54" height="54" viewBox="0 0 54 54" fill="none">
  <path d="M40.9275 39.9375H16.965C14.7375 39.9375 12.6 38.9925 11.0925 37.35C9.58498 35.7075 8.82 33.5025 9 31.275L10.8675 8.86501C10.935 8.16751 10.6875 7.49251 10.215 6.97501C9.74249 6.45751 9.08999 6.1875 8.39249 6.1875H4.5C3.5775 6.1875 2.8125 5.4225 2.8125 4.5C2.8125 3.5775 3.5775 2.8125 4.5 2.8125H8.41501C10.0575 2.8125 11.61 3.50999 12.7125 4.70249C13.32 5.37749 13.77 6.16501 14.0175 7.04251H42.12C44.3925 7.04251 46.485 7.9425 48.015 9.5625C49.5225 11.205 50.2875 13.3425 50.1075 15.615L48.8925 32.49C48.645 36.6075 45.045 39.9375 40.9275 39.9375ZM14.13 10.395L12.375 31.545C12.2625 32.85 12.69 34.0875 13.5675 35.055C14.445 36.0225 15.66 36.54 16.965 36.54H40.9275C43.2675 36.54 45.3825 34.56 45.5625 32.22L46.7775 15.345C46.8675 14.0175 46.44 12.7575 45.5625 11.835C44.685 10.89 43.47 10.3725 42.1425 10.3725H14.13V10.395Z" fill="#101323"/>
  <path d="M36.5625 51.1875C34.0875 51.1875 32.0625 49.1625 32.0625 46.6875C32.0625 44.2125 34.0875 42.1875 36.5625 42.1875C39.0375 42.1875 41.0625 44.2125 41.0625 46.6875C41.0625 49.1625 39.0375 51.1875 36.5625 51.1875ZM36.5625 45.5625C35.9325 45.5625 35.4375 46.0575 35.4375 46.6875C35.4375 47.3175 35.9325 47.8125 36.5625 47.8125C37.1925 47.8125 37.6875 47.3175 37.6875 46.6875C37.6875 46.0575 37.1925 45.5625 36.5625 45.5625Z" fill="#101323"/>
  <path d="M18.5625 51.1875C16.0875 51.1875 14.0625 49.1625 14.0625 46.6875C14.0625 44.2125 16.0875 42.1875 18.5625 42.1875C21.0375 42.1875 23.0625 44.2125 23.0625 46.6875C23.0625 49.1625 21.0375 51.1875 18.5625 51.1875ZM18.5625 45.5625C17.9325 45.5625 17.4375 46.0575 17.4375 46.6875C17.4375 47.3175 17.9325 47.8125 18.5625 47.8125C19.1925 47.8125 19.6875 47.3175 19.6875 46.6875C19.6875 46.0575 19.1925 45.5625 18.5625 45.5625Z" fill="#101323"/>
  <path d="M47.25 19.6875H20.25C19.3275 19.6875 18.5625 18.9225 18.5625 18C18.5625 17.0775 19.3275 16.3125 20.25 16.3125H47.25C48.1725 16.3125 48.9375 17.0775 48.9375 18C48.9375 18.9225 48.1725 19.6875 47.25 19.6875Z" fill="#101323"/>
</svg>
