<svg xmlns="http://www.w3.org/2000/svg" width="56" height="53" viewBox="0 0 56 53" fill="none">
  <path d="M28 34.7812C23.17 34.7812 19.25 31.0712 19.25 26.5C19.25 21.9288 23.17 18.2188 28 18.2188C32.83 18.2188 36.75 21.9288 36.75 26.5C36.75 31.0712 32.83 34.7812 28 34.7812ZM28 21.5312C25.1067 21.5312 22.75 23.7617 22.75 26.5C22.75 29.2383 25.1067 31.4688 28 31.4688C30.8933 31.4688 33.25 29.2383 33.25 26.5C33.25 23.7617 30.8933 21.5312 28 21.5312Z" fill="#101323"/>
  <path d="M35.4901 49.0029C35.0001 49.0029 34.5101 48.9367 34.0201 48.8262C32.5734 48.4508 31.3601 47.5896 30.5901 46.375L30.3101 45.9333C28.9334 43.6808 27.0434 43.6808 25.6667 45.9333L25.4101 46.3529C24.6401 47.5896 23.4267 48.4729 21.9801 48.8262C20.5101 49.2017 18.9934 49.0029 17.7101 48.2742L13.6967 46.0879C12.2734 45.315 11.2467 44.0562 10.8034 42.5325C10.3834 41.0087 10.5934 39.4408 11.4101 38.0937C12.0867 36.9675 12.2734 35.9516 11.8767 35.3112C11.4801 34.6708 10.4767 34.2954 9.10008 34.2954C5.69341 34.2954 2.91675 31.6675 2.91675 28.4433V24.5566C2.91675 21.3325 5.69341 18.7046 9.10008 18.7046C10.4767 18.7046 11.4801 18.3292 11.8767 17.6887C12.2734 17.0483 12.1101 16.0325 11.4101 14.9062C10.5934 13.5591 10.3834 11.9691 10.8034 10.4675C11.2234 8.94373 12.2501 7.68498 13.6967 6.91207L17.7334 4.72581C20.3701 3.24623 23.8467 4.10748 25.4334 6.64706L25.7134 7.08873C27.0901 9.34123 28.9801 9.34123 30.3567 7.08873L30.6134 6.66915C32.2001 4.10748 35.6767 3.24623 38.3367 4.7479L42.3501 6.93415C43.7734 7.70707 44.8001 8.96582 45.2434 10.4896C45.6634 12.0133 45.4534 13.5812 44.6367 14.9283C43.9601 16.0546 43.7734 17.0704 44.1701 17.7108C44.5667 18.3512 45.5701 18.7266 46.9467 18.7266C50.3534 18.7266 53.1301 21.3546 53.1301 24.5787V28.4654C53.1301 31.6896 50.3534 34.3175 46.9467 34.3175C45.5701 34.3175 44.5667 34.6929 44.1701 35.3333C43.7734 35.9737 43.9367 36.9896 44.6367 38.1158C45.4534 39.4629 45.6867 41.0529 45.2434 42.5546C44.8234 44.0783 43.7967 45.3371 42.3501 46.11L38.3134 48.2962C37.4267 48.76 36.4701 49.0029 35.4901 49.0029ZM28.0001 40.8321C30.0767 40.8321 32.0134 42.0687 33.3434 44.255L33.6001 44.6746C33.8801 45.1383 34.3467 45.4696 34.9067 45.6021C35.4667 45.7346 36.0267 45.6683 36.4934 45.4033L40.5301 43.195C41.1367 42.8637 41.6034 42.3117 41.7901 41.6492C41.9767 40.9867 41.8834 40.3021 41.5334 39.7279C40.2034 37.5637 40.0401 35.3333 41.0667 33.6329C42.0934 31.9325 44.2167 30.9608 46.8767 30.9608C48.3701 30.9608 49.5601 29.8346 49.5601 28.4212V24.5346C49.5601 23.1433 48.3701 21.995 46.8767 21.995C44.2167 21.995 42.0934 21.0233 41.0667 19.3229C40.0401 17.6225 40.2034 15.3921 41.5334 13.2279C41.8834 12.6537 41.9767 11.9691 41.7901 11.3066C41.6034 10.6441 41.1601 10.1141 40.5534 9.76082L36.5167 7.57456C35.5134 7.0004 34.1834 7.33165 33.5767 8.30331L33.3201 8.7229C31.9901 10.9091 30.0534 12.1458 27.9767 12.1458C25.9001 12.1458 23.9634 10.9091 22.6334 8.7229L22.3767 8.28123C21.7934 7.35373 20.4867 7.02248 19.4834 7.57456L15.4467 9.7829C14.8401 10.1141 14.3734 10.6662 14.1867 11.3287C14.0001 11.9912 14.0934 12.6758 14.4434 13.25C15.7734 15.4141 15.9367 17.6446 14.9101 19.345C13.8834 21.0454 11.7601 22.0171 9.10008 22.0171C7.60675 22.0171 6.41675 23.1433 6.41675 24.5566V28.4433C6.41675 29.8346 7.60675 30.9829 9.10008 30.9829C11.7601 30.9829 13.8834 31.9546 14.9101 33.655C15.9367 35.3554 15.7734 37.5858 14.4434 39.75C14.0934 40.3242 14.0001 41.0087 14.1867 41.6712C14.3734 42.3337 14.8167 42.8637 15.4234 43.2171L19.4601 45.4033C19.9501 45.6904 20.5334 45.7566 21.0701 45.6241C21.6301 45.4916 22.0967 45.1383 22.4001 44.6746L22.6567 44.255C23.9867 42.0908 25.9234 40.8321 28.0001 40.8321Z" fill="#101323"/>
</svg>