<svg xmlns="http://www.w3.org/2000/svg" width="24" height="24" viewBox="0 0 24 24" fill="none">
  <path d="M9.98959 22.7501C9.78959 22.7501 9.62959 22.7101 9.50959 22.6601C9.10959 22.5101 8.42959 22.0201 8.42959 20.4701V14.0201H6.08959C4.74959 14.0201 4.26959 13.3901 4.09959 13.0201C3.92959 12.6401 3.77959 11.8701 4.65959 10.8601L12.2296 2.26013C13.2496 1.10013 14.0796 1.18013 14.4796 1.33013C14.8796 1.48013 15.5596 1.97013 15.5596 3.52013V9.97013H17.8996C19.2396 9.97013 19.7196 10.6001 19.8896 10.9701C20.0596 11.3501 20.2096 12.1201 19.3296 13.1301L11.7596 21.7301C11.0496 22.5401 10.4296 22.7501 9.98959 22.7501ZM13.9296 2.74013C13.8996 2.78013 13.6896 2.88013 13.3596 3.26013L5.78959 11.8601C5.50959 12.1801 5.46959 12.3801 5.46959 12.4201C5.48959 12.4301 5.66959 12.5301 6.08959 12.5301H9.17959C9.58959 12.5301 9.92959 12.8701 9.92959 13.2801V20.4801C9.92959 20.9801 10.0196 21.2001 10.0596 21.2601C10.0896 21.2201 10.2996 21.1201 10.6296 20.7401L18.1996 12.1401C18.4796 11.8201 18.5196 11.6201 18.5196 11.5801C18.4996 11.5701 18.3196 11.4701 17.8996 11.4701H14.8096C14.3996 11.4701 14.0596 11.1301 14.0596 10.7201V3.52013C14.0696 3.02013 13.9696 2.81013 13.9296 2.74013Z" fill="#0CB981"/>
</svg>