<svg xmlns="http://www.w3.org/2000/svg" width="37" height="37" viewBox="0 0 37 37" fill="none">
  <g clip-path="url(#clip0_121_13411)">
    <path fill-rule="evenodd" clip-rule="evenodd" d="M30.9947 5.29759C27.5846 1.88309 23.0492 0.00173237 18.2167 0C8.25908 0 0.155047 8.10317 0.151582 18.0634C0.14985 21.2475 0.982255 24.3554 2.56304 27.0943L0 36.456L9.57654 33.944C12.2149 35.3837 15.1859 36.1416 18.209 36.1425H18.2167C28.1726 36.1425 36.2776 28.0384 36.2811 18.0781C36.2828 13.2509 34.4057 8.71297 30.9947 5.29845V5.29759ZM18.2167 33.0917H18.2107C15.5168 33.0909 12.8741 32.3667 10.5684 30.999L10.02 30.6734L4.337 32.1641L5.85369 26.623L5.49681 26.0548C3.99398 23.6642 3.19969 20.901 3.20142 18.0643C3.20489 9.78617 9.94034 3.0507 18.2229 3.0507C22.2332 3.05244 26.0029 4.61591 28.8379 7.4544C31.673 10.292 33.2329 14.0652 33.2312 18.0764C33.2277 26.3555 26.4923 33.0909 18.2167 33.0909V33.0917ZM26.4524 21.8469C26.0011 21.6209 23.782 20.5294 23.3679 20.3788C22.9539 20.228 22.6534 20.1527 22.3528 20.6048C22.0522 21.057 21.1869 22.0739 20.9236 22.3744C20.6602 22.6759 20.3969 22.7131 19.9456 22.487C19.4944 22.2609 18.04 21.7846 16.3155 20.247C14.9738 19.05 14.0677 17.5723 13.8044 17.1201C13.5411 16.668 13.7767 16.4237 14.0019 16.1994C14.2045 15.9967 14.4532 15.6719 14.6792 15.4086C14.9054 15.1452 14.9798 14.9565 15.1305 14.6558C15.2813 14.3544 15.2059 14.0912 15.0933 13.865C14.9806 13.639 14.0782 11.4171 13.7013 10.5137C13.3349 9.63372 12.9625 9.75325 12.6862 9.73853C12.4228 9.72553 12.1223 9.72294 11.8209 9.72294C11.5194 9.72294 11.0309 9.83554 10.6168 10.2877C10.2028 10.7398 9.03691 11.8321 9.03691 14.053C9.03691 16.2739 10.6541 18.4212 10.8802 18.7226C11.1062 19.0241 14.0633 23.5828 18.5909 25.5386C19.6677 26.0037 20.5087 26.2818 21.1643 26.4897C22.2454 26.8336 23.2293 26.7851 24.0072 26.669C24.8743 26.5391 26.6777 25.5767 27.0536 24.5226C27.4295 23.4684 27.4295 22.5641 27.3169 22.3761C27.2043 22.1882 26.9029 22.0747 26.4516 21.8486L26.4524 21.8469Z" fill="#25D366"/>
  </g>
  <defs>
    <clipPath id="clip0_121_13411">
      <rect width="36.2811" height="36.4826" fill="white"/>
    </clipPath>
  </defs>
</svg>